<?xml version="1.0" encoding="UTF-8" standalone="no"?>
<!-- Created with Inkscape (http://www.inkscape.org/) -->

<svg
   width="1000"
   height="450"
   viewBox="0 0 264.58332 119.0625"
   version="1.1"
   id="svg962"
   inkscape:version="1.2.2 (b0a8486541, 2022-12-01)"
   sodipodi:docname="logo.svg"
   xmlns:inkscape="http://www.inkscape.org/namespaces/inkscape"
   xmlns:sodipodi="http://sodipodi.sourceforge.net/DTD/sodipodi-0.dtd"
   xmlns:xlink="http://www.w3.org/1999/xlink"
   xmlns="http://www.w3.org/2000/svg"
   xmlns:svg="http://www.w3.org/2000/svg"
   xmlns:rdf="http://www.w3.org/1999/02/22-rdf-syntax-ns#"
   xmlns:cc="http://creativecommons.org/ns#"
   xmlns:dc="http://purl.org/dc/elements/1.1/">
  <sodipodi:namedview
     id="base"
     pagecolor="#ffffff"
     bordercolor="#666666"
     borderopacity="1.0"
     inkscape:pageopacity="0.0"
     inkscape:pageshadow="2"
     inkscape:zoom="1"
     inkscape:cx="594"
     inkscape:cy="295"
     inkscape:document-units="mm"
     inkscape:current-layer="layer1"
     showgrid="false"
     units="px"
     inkscape:window-width="2560"
     inkscape:window-height="1371"
     inkscape:window-x="2560"
     inkscape:window-y="32"
     inkscape:window-maximized="1"
     inkscape:showpageshadow="2"
     inkscape:pagecheckerboard="0"
     inkscape:deskcolor="#d1d1d1" />
  <defs
     id="defs956">
    <linearGradient
       inkscape:collect="always"
       id="linearGradient1832">
      <stop
         style="stop-color:#000000;stop-opacity:1;"
         offset="0"
         id="stop1828" />
      <stop
         style="stop-color:#000000;stop-opacity:0;"
         offset="1"
         id="stop1830" />
    </linearGradient>
    <linearGradient
       inkscape:collect="always"
       xlink:href="#linearGradient1832"
       id="linearGradient1834"
       x1="266.78574"
       y1="222.49998"
       x2="375.71429"
       y2="331.42856"
       gradientUnits="userSpaceOnUse" />
    <clipPath
       clipPathUnits="userSpaceOnUse"
       id="clipPath1913">
      <rect
         style="display:inline;opacity:1;fill:#2ecc71;fill-opacity:1;stroke:none;stroke-width:1.39814;stroke-linejoin:round;stroke-miterlimit:4;stroke-dasharray:none;stroke-opacity:1"
         id="rect1915"
         width="696.58575"
         height="696.58575"
         x="-97.32782"
         y="-98.168327"
         rx="65.835129"
         ry="60.851021" />
    </clipPath>
    <clipPath
       clipPathUnits="userSpaceOnUse"
       id="clipPath1917">
      <rect
         style="display:inline;opacity:1;fill:#2ecc71;fill-opacity:1;stroke:none;stroke-width:0.159;stroke-linejoin:round;stroke-miterlimit:4;stroke-dasharray:none;stroke-opacity:1"
         id="rect1919"
         width="79.217278"
         height="79.217278"
         x="17.319767"
         y="14.104442"
         rx="7.4869165"
         ry="6.9201126" />
    </clipPath>
    <clipPath
       clipPathUnits="userSpaceOnUse"
       id="clipPath1921">
      <rect
         style="display:inline;opacity:1;fill:#2ecc71;fill-opacity:1;stroke:none;stroke-width:0.600945;stroke-linejoin:round;stroke-miterlimit:4;stroke-dasharray:none;stroke-opacity:1"
         id="rect1923"
         width="299.40387"
         height="299.40387"
         x="65.460533"
         y="53.308125"
         rx="28.297007"
         ry="26.154757" />
    </clipPath>
  </defs>
  <metadata
     id="metadata959">
    <rdf:RDF>
      <cc:Work
         rdf:about="">
        <dc:format>image/svg+xml</dc:format>
        <dc:type
           rdf:resource="http://purl.org/dc/dcmitype/StillImage" />
      </cc:Work>
    </rdf:RDF>
  </metadata>
  <g
     transform="translate(0,-138.24999)"
     id="layer1"
     inkscape:groupmode="layer"
     inkscape:label="Background"
     style="display:inline">
    <rect
       ry="6.9201126"
       rx="7.4869165"
       y="157.37997"
       x="17.319767"
       height="79.217278"
       width="79.217278"
       id="rect1507"
       style="opacity:1;fill:#2ecc71;fill-opacity:1;stroke:none;stroke-width:0.159;stroke-linejoin:round;stroke-miterlimit:4;stroke-dasharray:none;stroke-opacity:1"
       inkscape:export-filename="/home/eliastik/git_repos/SnakeIA/assets/images/icon/flowRoot854.png"
       inkscape:export-xdpi="100.03879"
       inkscape:export-ydpi="100.03879" />
  </g>
  <g
     inkscape:label="Icon"
     id="layer2"
     inkscape:groupmode="layer">
    <path
       style="opacity:0.25;fill:url(#linearGradient1834);fill-opacity:1;stroke-width:0.430021"
       d="m 219.5625,97.666016 c -12.40095,6.8e-5 -30.6476,0.861156 -45.88086,8.306644 -8.32346,4.06885 -14.84372,9.70407 -19.38086,16.74609 -5.1512,7.99452 -7.76367,17.84193 -7.76367,29.26758 0,16.63753 3.83625,26.84772 8.69336,39.77539 1.619,4.31057 3.29307,8.7686 5.02734,13.98047 4.49893,13.519 9.93716,27.4597 19.19336,37.83008 1.07124,1.20007 2.17832,2.33346 3.32031,3.40234 0.71338,0.75116 1.43621,1.48211 2.17969,2.17773 0.7,0.73641 1.40775,1.4557 2.13672,2.13868 0.7064,0.74367 1.42423,1.46898 2.16016,2.1582 0.69304,0.72887 1.39379,1.44069 2.11523,2.11719 0.69205,0.72833 1.39291,1.43719 2.11328,2.11328 0.69083,0.7272 1.39228,1.43619 2.11133,2.11133 0.6941,0.7305 1.3985,1.44315 2.12109,2.12109 0.68329,0.7182 1.37507,1.41863 2.08594,2.08594 0.67558,0.7101 1.35995,1.40214 2.0625,2.0625 0.67718,0.71224 1.36213,1.40612 2.06641,2.06836 0.67811,0.71307 1.36697,1.40738 2.07226,2.07031 0.6642,0.69778 1.33709,1.37763 2.02735,2.02734 0.66645,0.70068 1.34245,1.38485 2.03515,2.03711 0.6598,0.6935 1.33011,1.36958 2.01563,2.01563 0.22205,0.23344 0.44302,0.4692 0.66797,0.69726 v 7.09961 l -19.79102,25.3711 2.4043,1.875 -0.23047,0.29687 2.39062,1.86524 -0.23046,0.29687 2.38281,1.85742 -0.23047,0.29492 2.36719,1.84571 -0.22852,0.29297 2.35742,1.83789 -0.22656,0.29101 2.34375,1.82813 -0.22656,0.29101 2.33203,1.81836 -0.22461,0.28906 2.32031,1.81055 -0.22265,0.28516 2.30664,1.80078 -0.22266,0.28516 2.29688,1.79101 -0.22071,0.2832 2.28321,1.78125 -0.22071,0.28321 2.27149,1.77148 -0.21875,0.28125 2.26172,1.76367 -0.21875,0.2793 2.24804,1.75391 -0.21679,0.27734 2.23437,1.74414 -0.21484,0.27539 2.22461,1.73438 -0.21485,0.27539 2.21094,1.72461 -0.21289,0.27343 2.20117,1.7168 -0.21289,0.27148 2.1875,1.70704 -0.21094,0.26953 2.17383,1.69531 -0.20898,0.26953 2.16406,1.6875 -0.20898,0.26758 2.15234,1.67773 -0.20703,0.26563 2.13867,1.66797 -0.20703,0.26562 2.12891,1.66016 -0.20508,0.26172 2.11523,1.65039 -0.20508,0.26172 2.10352,1.64062 -0.20313,0.25977 2.0918,1.63086 -0.20117,0.25781 2.08008,1.62109 -0.20117,0.25782 2.0664,1.61328 -0.19922,0.25586 2.05469,1.60156 -0.19727,0.2539 2.04297,1.59376 -0.19726,0.2539 2.02929,1.58399 -0.19531,0.25 2.01953,1.57421 -0.19531,0.25 2.00781,1.56641 -0.19336,0.24805 1.99414,1.55468 -0.1914,0.2461 1.98242,1.54687 -0.19141,0.2461 1.96875,1.53515 -0.18945,0.24414 1.95899,1.5293 -0.1875,0.24024 1.94531,1.51757 -0.1875,0.24219 1.93554,1.50977 -0.1875,0.23828 1.92383,1.5 -0.18554,0.23633 1.91015,1.49023 -0.18555,0.23633 1.89844,1.48047 -0.18164,0.23437 1.88477,1.47071 -0.18164,0.23437 1.875,1.46094 -0.18164,0.23242 1.86328,1.45312 -0.17969,0.23047 1.84961,1.44336 -0.17773,0.22852 1.83789,1.43359 -0.17774,0.22656 1.82617,1.42383 -0.17578,0.22657 1.81446,1.41406 -0.17579,0.22461 1.80274,1.40625 -0.17383,0.22265 1.78906,1.39649 -0.17187,0.2207 1.77734,1.38672 -0.17187,0.21875 1.76562,1.37695 -0.16992,0.21875 1.75391,1.36719 -0.16993,0.2168 1.74219,1.35937 -0.16797,0.21485 1.72852,1.34961 -0.16602,0.21289 1.71875,1.33984 -0.16601,0.21289 1.70508,1.33008 -0.16407,0.21094 1.69336,1.32031 -0.16406,0.20898 1.68164,1.3125 -0.16211,0.20703 1.66992,1.30274 -0.16015,0.20508 1.65625,1.29297 -0.16016,0.20507 1.64453,1.28321 -0.1582,0.20312 1.63476,1.27539 -0.1582,0.20117 1.62109,1.26368 -0.15625,0.20117 1.60743,1.2539 -0.1543,0.19922 1.59766,1.2461 -0.1543,0.19726 1.58398,1.23633 -0.15234,0.19531 1.57422,1.22657 -0.15235,0.19531 1.56055,1.21679 -0.15039,0.19336 1.54883,1.20899 -0.14844,0.19141 1.53711,1.19921 -0.14844,0.18946 1.52344,1.18945 -0.14648,0.1875 1.51367,1.17969 -0.14649,0.1875 1.5,1.16992 -0.14453,0.18555 1.49024,1.16211 -0.14453,0.18359 1.47656,1.15234 -0.14258,0.18164 1.46289,1.14063 -0.14062,0.18164 1.45312,1.13281 -0.14062,0.17969 1.4414,1.12305 -0.13867,0.17773 1.42773,1.11328 -0.13867,0.17774 1.41602,1.10547 -0.13477,0.17382 1.4043,1.09571 -0.13672,0.17382 1.39258,1.08594 -0.13477,0.17188 1.38086,1.07812 -0.13281,0.16992 1.36719,1.06641 -0.13086,0.16797 1.35547,1.05859 -0.13086,0.16797 1.34375,1.04883 -0.12891,0.16406 1.33203,1.03906 -0.1289,0.16602 1.31836,1.0293 -0.12696,0.16211 1.3086,1.01953 -0.12696,0.16211 1.29688,1.01172 -0.125,0.16015 1.2832,1 -0.12305,0.1582 1.27149,0.99219 -0.12305,0.15821 1.25977,0.98242 -0.1211,0.15429 1.24805,0.97461 -0.12109,0.1543 1.23437,0.96289 -0.11914,0.15235 1.22266,0.95507 -0.11719,0.15039 1.21094,0.94532 -0.11524,0.14843 1.19922,0.93555 -0.11523,0.14844 1.1875,0.92578 -0.11524,0.14844 1.17383,0.91601 -0.11328,0.14453 1.16406,0.90821 -0.11133,0.14257 1.1504,0.89844 -0.11133,0.14258 1.13867,0.88867 -0.10938,0.14063 1.12696,0.8789 -0.10938,0.13868 1.11524,0.86914 -0.10743,0.13867 1.10157,0.85937 -0.10547,0.13672 1.09179,0.85156 -0.10546,0.13477 1.07812,0.8418 -0.10351,0.13281 1.0664,0.83203 -0.10156,0.13086 1.05273,0.82227 -0.10156,0.13086 1.04492,0.81445 -0.10156,0.1289 1.0293,0.80274 -0.0977,0.12695 1.01953,0.79492 -0.0996,0.12696 1.00586,0.7832 -0.0976,0.125 0.99414,0.77539 -0.0957,0.12305 0.98438,0.76758 -0.0957,0.12109 0.96875,0.75586 -0.0918,0.11914 0.95898,0.74805 -0.0937,0.11914 0.94727,0.73828 -0.0918,0.11719 0.9336,0.72851 -0.0899,0.11524 0.91992,0.71875 -0.0879,0.11328 0.91016,0.70898 -0.0879,0.11328 0.89844,0.70117 -0.0859,0.11133 0.88476,0.69141 -0.084,0.10742 0.875,0.68164 -0.0859,0.10938 0.86133,0.67187 -0.082,0.10547 0.84961,0.66406 -0.082,0.10547 0.83594,0.65235 -0.0801,0.10351 0.82617,0.64453 -0.0801,0.10156 0.81445,0.63477 -0.0781,0.0996 0.80078,0.625 -0.0781,0.0996 0.79101,0.61719 -0.0762,0.0957 0.77734,0.60547 -0.0762,0.0976 0.76563,0.59766 -0.0742,0.0937 0.7539,0.58789 -0.0723,0.0937 0.74218,0.57813 -0.0723,0.0918 0.72852,0.56836 -0.0703,0.0899 0.7168,0.56054 -0.0684,0.0879 0.70508,0.54883 -0.0684,0.0879 0.69336,0.54102 -0.0664,0.0859 0.68164,0.53125 -0.0664,0.084 0.66797,0.52148 -0.0645,0.082 0.65625,0.51171 -0.0625,0.082 0.64453,0.5039 -0.0605,0.0781 0.63281,0.49218 -0.0625,0.0801 0.62109,0.48438 -0.0605,0.0762 0.60937,0.47461 -0.0586,0.0762 0.5957,0.46484 -0.0566,0.0742 0.58398,0.45703 -0.0547,0.0703 0.57226,0.44531 -0.0566,0.0723 0.56055,0.4375 -0.0527,0.0684 0.54688,0.42774 -0.0527,0.0684 0.53711,0.41992 -0.0508,0.0644 0.52344,0.40821 -0.0508,0.0664 0.51172,0.40039 -0.0488,0.0625 0.5,0.38868 -0.0488,0.0625 0.48828,0.38085 -0.0469,0.0606 0.47656,0.3711 -0.0449,0.0586 0.46289,0.36133 -0.0449,0.0586 0.45117,0.35156 -0.043,0.0566 0.44141,0.34375 -0.043,0.0547 0.42773,0.33399 -0.041,0.0527 0.41406,0.32422 -0.0391,0.0508 0.40429,0.31445 -0.0391,0.0508 0.39063,0.30469 -0.0371,0.0488 0.38086,0.29688 -0.0371,0.0469 0.36718,0.28711 -0.0351,0.0449 0.35547,0.27734 -0.0352,0.043 0.34375,0.26758 -0.0332,0.043 0.33203,0.25977 -0.0312,0.041 0.31836,0.24805 -0.0312,0.0391 0.30859,0.24024 -0.0293,0.0371 0.29493,0.23046 -0.0293,0.0371 0.2832,0.22071 -0.0273,0.0351 0.27148,0.21289 -0.0254,0.0332 0.25781,0.20117 -0.0234,0.0312 0.24804,0.19336 -0.0254,0.0312 0.23633,0.18359 -0.0234,0.0293 0.22266,0.17383 -0.0215,0.0273 0.20898,0.16406 -0.0195,0.0254 0.19922,0.1543 -0.0195,0.0254 0.1875,0.14648 -0.0176,0.0234 0.17578,0.13672 -0.0176,0.0215 0.16211,0.12695 -0.0156,0.0195 0.15039,0.11719 -0.0137,0.0195 0.13867,0.10742 -0.0137,0.0176 0.125,0.0977 -0.0117,0.0156 0.11523,0.0898 -0.0117,0.0137 0.10352,0.0801 -0.01,0.0137 0.0899,0.0703 -0.008,0.01 0.0781,0.0606 -0.008,0.0117 0.0645,0.0508 -0.006,0.008 0.0547,0.043 -0.004,0.006 0.043,0.0332 -0.006,0.006 0.0293,0.0234 -0.002,0.004 0.0176,0.0137 -0.002,0.002 10.75586,8.39063 13.91406,-17.83594 0.11524,0.14844 0.084,-0.0664 0.53125,0.68164 0.084,-0.0645 0.52149,0.66797 0.082,-0.0625 0.51172,0.65625 0.0801,-0.0625 0.50195,0.64453 0.0781,-0.0605 0.49414,0.63281 0.0762,-0.0605 0.48437,0.62109 0.0742,-0.0586 0.47461,0.60937 0.0742,-0.0566 0.46484,0.5957 0.0742,-0.0566 0.45508,0.58399 0.0703,-0.0547 0.44727,0.57227 0.0684,-0.0547 0.4375,0.56055 0.0684,-0.0527 0.42773,0.54883 0.0664,-0.0508 0.41797,0.53516 0.0645,-0.0488 0.4082,0.52343 0.0625,-0.0488 0.40039,0.51172 0.0625,-0.0488 0.39063,0.5 0.0605,-0.0469 0.38086,0.48828 0.0586,-0.0449 0.37109,0.47461 0.0566,-0.0449 0.36328,0.46484 0.0566,-0.043 0.35157,0.45118 0.0527,-0.041 0.34375,0.43945 0.0527,-0.041 0.33398,0.42773 0.0527,-0.041 0.32422,0.41601 0.0488,-0.0371 0.31445,0.40235 0.0488,-0.0391 0.30664,0.39258 0.0449,-0.0352 0.29688,0.3789 0.0449,-0.0352 0.28711,0.36718 0.0449,-0.0351 0.27735,0.35547 0.043,-0.0332 0.26758,0.34375 0.041,-0.0312 0.25781,0.33008 0.0391,-0.0312 0.25,0.32031 0.0371,-0.0293 0.24024,0.30664 0.0371,-0.0293 0.23047,0.29687 0.0351,-0.0273 0.22071,0.2832 0.0332,-0.0254 0.21094,0.26953 0.0312,-0.0254 0.20312,0.25977 0.0293,-0.0234 0.19336,0.24805 0.0293,-0.0234 0.1836,0.23438 0.0273,-0.0215 0.17383,0.22461 0.0273,-0.0215 0.16407,0.21093 0.0254,-0.0195 0.15429,0.19922 0.0215,-0.0176 0.14648,0.1875 0.0234,-0.0176 0.13477,0.17382 0.0195,-0.0156 0.12695,0.16406 0.0195,-0.0156 0.11719,0.15039 0.0156,-0.0117 0.10938,0.13867 0.0176,-0.0137 0.0976,0.12695 0.0137,-0.0117 0.0899,0.11524 0.0117,-0.01 0.0801,0.10156 0.0117,-0.008 0.0703,0.0898 0.008,-0.006 0.0625,0.0781 0.01,-0.008 0.0508,0.0664 0.006,-0.006 0.043,0.0547 0.004,-0.004 0.0332,0.043 0.004,-0.002 0.0234,0.0293 0.004,-0.002 0.0137,0.0176 10.75585,-8.38867 -19.79687,-25.3789 v -24.08008 -0.004 c 0.0265,-0.002 0.0493,-0.004 0.0742,-0.008 2.07175,-0.20107 4.0822,-0.49566 6.0293,-0.88477 0.004,-8.3e-4 0.006,-0.002 0.01,-0.002 0.39012,-0.0782 0.77878,-0.1603 1.16406,-0.24609 0.0113,-0.002 0.0273,-0.002 0.0391,-0.006 0.37606,-0.0835 0.74934,-0.17221 1.12109,-0.26367 0.0189,-0.004 0.0393,-0.006 0.0566,-0.0137 1.51669,-0.37379 2.99382,-0.80904 4.43359,-1.30468 0.008,-0.002 0.0159,-0.004 0.0234,-0.008 0.31143,-0.10696 0.62158,-0.21782 0.92969,-0.33007 0.0779,-0.0302 0.15614,-0.0588 0.23437,-0.0879 0.29707,-0.11074 0.59302,-0.22343 0.88672,-0.33984 0.0756,-0.034 0.15135,-0.0612 0.22657,-0.0918 0.29064,-0.11678 0.57994,-0.23376 0.86718,-0.35546 0.076,-0.034 0.15217,-0.0671 0.22852,-0.0996 0.89858,-0.38695 1.77938,-0.79929 2.64648,-1.23829 0.10129,-0.051 0.20535,-0.10251 0.30664,-0.15429 0.24114,-0.12435 0.48008,-0.2504 0.71875,-0.37891 0.11566,-0.062 0.23119,-0.12476 0.34571,-0.1875 0.22715,-0.12472 0.45323,-0.25082 0.67773,-0.3789 0.14438,-0.082 0.28832,-0.16534 0.43164,-0.25 0.20334,-0.11868 0.4044,-0.23925 0.60547,-0.36133 0.13531,-0.082 0.26895,-0.16647 0.4043,-0.25 0.22828,-0.14098 0.45788,-0.28061 0.68359,-0.42578 0.0763,-0.0491 0.15255,-0.10321 0.22852,-0.15235 0.36094,-0.23508 0.71721,-0.47668 1.07226,-0.72265 0.2109,-0.14552 0.42253,-0.28967 0.63086,-0.43946 0.144,-0.10356 0.28472,-0.20976 0.42774,-0.31445 0.19426,-0.14249 0.38796,-0.28387 0.58007,-0.42969 0.14778,-0.11149 0.29345,-0.22608 0.43946,-0.33984 0.19313,-0.14967 0.385,-0.2996 0.57617,-0.45313 0.13757,-0.10998 0.27529,-0.22053 0.41211,-0.33203 0.17801,-0.14551 0.35497,-0.29437 0.53125,-0.44336 0.15609,-0.13115 0.31056,-0.2628 0.46484,-0.39648 0.1818,-0.15723 0.36291,-0.3162 0.54297,-0.47656 0.13077,-0.11679 0.26268,-0.23131 0.39258,-0.34961 0.30614,-0.27855 0.60896,-0.56195 0.91016,-0.84961 0.0881,-0.0835 0.17441,-0.16849 0.26171,-0.25391 0.21619,-0.20938 0.43291,-0.42054 0.64649,-0.63476 0.11527,-0.11604 0.22923,-0.2344 0.34375,-0.35157 0.19918,-0.20334 0.39894,-0.40747 0.5957,-0.61523 0.10658,-0.11263 0.21178,-0.22728 0.31836,-0.3418 0.0888,-0.096 0.17914,-0.18878 0.26758,-0.28515 l 0.002,-0.002 c 0.0665,-0.0729 0.13503,-0.147 0.20117,-0.2207 0.001,-10e-4 0.003,-0.002 0.004,-0.004 0.0302,-0.0382 0.0624,-0.0687 0.0937,-0.10351 v -0.002 c 0.004,-0.004 0.008,-0.006 0.0117,-0.01 v -0.002 c 0.0302,-0.0382 0.0619,-0.0675 0.0918,-0.10157 0.004,-0.004 0.008,-0.008 0.0117,-0.0117 0.034,-0.0382 0.0628,-0.0707 0.0937,-0.10546 0.28876,-0.32353 0.57378,-0.65179 0.85547,-0.98243 h 0.002 c 0.28119,-0.3307 0.55955,-0.66478 0.83398,-1.00195 v -0.002 c 0.27439,-0.33714 0.54506,-0.67793 0.8125,-1.02149 h 0.002 c 0.26722,-0.34393 0.53046,-0.69152 0.79102,-1.04101 0,0 0.002,0 0.002,0 0.26041,-0.34961 0.51746,-0.70283 0.77149,-1.0586 0.2536,-0.35527 0.50462,-0.71519 0.75195,-1.07617 0,0 0.002,0 0.002,0 0.24756,-0.36132 0.4914,-0.72541 0.73243,-1.09179 0,0 0,-0.002 0,-0.002 0.24113,-0.36661 0.4799,-0.73589 0.71484,-1.10742 0,0 0,-0.002 0,-0.002 0.0907,-0.14438 0.17958,-0.28992 0.26953,-0.43555 0.14249,-0.22866 0.28759,-0.45534 0.42773,-0.68555 0.22942,-0.37682 0.45444,-0.75739 0.67774,-1.13867 0.44659,-0.76271 0.88205,-1.53458 1.30664,-2.31445 0,0 0.002,-0.002 0.002,-0.002 0.42456,-0.77983 0.83827,-1.56822 1.24219,-2.36329 0,0 0,-0.002 0,-0.002 0.40403,-0.79525 0.79888,-1.5977 1.18359,-2.40625 0.38476,-0.80852 0.76008,-1.62343 1.12696,-2.44336 0.36699,-0.81993 0.72573,-1.64534 1.07617,-2.47461 v -0.002 c 0.35074,-0.82927 0.69206,-1.66134 1.02734,-2.49805 l 0.002,-0.002 c 0.33524,-0.83645 0.66277,-1.67569 0.98437,-2.51758 0,0 0,-0.002 0,-0.002 0.0809,-0.21241 0.15778,-0.42608 0.23828,-0.63867 0.55658,-1.47402 1.09926,-2.95447 1.6211,-4.43555 0.2982,-0.84699 0.5918,-1.69433 0.88085,-2.54102 0,0 0.002,-0.002 0.002,-0.002 0.28875,-0.84669 0.57254,-1.69276 0.85351,-2.53711 0,0 0,-0.002 0,-0.002 0.43318,-1.30239 0.863,-2.5577 1.28907,-3.77539 0,0 0,-0.002 0,-0.002 0.42595,-1.21757 0.8488,-2.39698 1.26757,-3.54882 0,0 0.002,-0.002 0.002,-0.002 0.41888,-1.152 0.8324,-2.27565 1.24414,-3.38086 h 0.002 c 0.41167,-1.1049 0.81798,-2.19248 1.22266,-3.26953 0,0 0.002,-0.002 0.002,-0.002 0.60688,-1.61567 1.198,-3.18771 1.76758,-4.73633 0.2846,-0.77412 0.56463,-1.54257 0.83789,-2.30664 v -0.002 c 0.27326,-0.76407 0.54026,-1.52278 0.80078,-2.28125 v -0.002 c 0.78172,-2.27573 1.50254,-4.53609 2.14453,-6.84179 0,0 0.002,-0.002 0.002,-0.002 0.21393,-0.76853 0.41766,-1.54149 0.61329,-2.32226 v -0.002 c 0.0601,-0.24075 0.11486,-0.48632 0.17382,-0.72851 0.13078,-0.54376 0.26307,-1.08663 0.38477,-1.63867 1.23273,-5.58425 1.96875,-11.63303 1.96875,-18.91211 0,-11.42564 -2.61252,-21.27263 -7.76367,-29.26758 -1.5577,-2.41739 -3.35523,-4.66495 -5.37305,-6.74414 -0.005,-0.005 -0.0105,-0.0103 -0.0156,-0.0156 -0.009,-0.009 -0.0184,-0.0181 -0.0274,-0.0273 -0.1718,-0.17783 -0.33994,-0.35849 -0.51562,-0.5332 -0.006,-0.005 -0.012,-0.0101 -0.0176,-0.0156 -0.004,-0.004 -0.008,-0.008 -0.0117,-0.0117 -0.005,-0.005 -0.0104,-0.0105 -0.0156,-0.0156 -0.004,-0.004 -0.009,-0.008 -0.0137,-0.0117 -0.008,-0.008 -0.0152,-0.0172 -0.0234,-0.0254 -0.006,-0.005 -0.0121,-0.0101 -0.0176,-0.0156 -0.0107,-0.0108 -0.0205,-0.0224 -0.0312,-0.0332 -0.006,-0.006 -0.0134,-0.0114 -0.0195,-0.0176 -0.014,-0.014 -0.0269,-0.029 -0.041,-0.043 -0.007,-0.007 -0.0159,-0.014 -0.0234,-0.0215 -0.0159,-0.016 -0.0308,-0.0329 -0.0469,-0.0488 -0.009,-0.009 -0.0186,-0.0167 -0.0273,-0.0254 -0.0184,-0.0188 -0.0362,-0.0379 -0.0547,-0.0566 -0.003,-0.003 -0.007,-0.007 -0.01,-0.01 -0.0275,-0.0279 -0.0542,-0.0563 -0.082,-0.084 -0.0107,-0.0107 -0.0225,-0.0206 -0.0332,-0.0312 -0.0237,-0.0239 -0.0464,-0.0485 -0.0703,-0.0723 -0.0182,-0.0181 -0.0384,-0.0347 -0.0566,-0.0527 -0.0198,-0.02 -0.0386,-0.0407 -0.0586,-0.0606 -0.013,-0.0129 -0.028,-0.0242 -0.041,-0.0371 -0.0285,-0.0289 -0.0552,-0.0593 -0.084,-0.0879 -0.0133,-0.0132 -0.0277,-0.0258 -0.041,-0.0391 -0.032,-0.0325 -0.0634,-0.0655 -0.0957,-0.0976 -0.0153,-0.0152 -0.0316,-0.0298 -0.0469,-0.0449 -0.0333,-0.0338 -0.0659,-0.0681 -0.0996,-0.10156 -0.0153,-0.0152 -0.0316,-0.0298 -0.0469,-0.0449 -0.0371,-0.0378 -0.0738,-0.0759 -0.11133,-0.11328 -0.0114,-0.0113 -0.0238,-0.0219 -0.0351,-0.0332 -0.0445,-0.0455 -0.0877,-0.0918 -0.13281,-0.13671 -0.0251,-0.0249 -0.053,-0.0474 -0.0781,-0.0723 -0.0343,-0.0348 -0.0669,-0.071 -0.10156,-0.10547 -0.0202,-0.02 -0.0423,-0.0386 -0.0625,-0.0586 -0.0432,-0.0441 -0.0851,-0.0892 -0.12891,-0.13282 -0.0211,-0.021 -0.0452,-0.0396 -0.0664,-0.0605 -0.0455,-0.0465 -0.0886,-0.0948 -0.13477,-0.14063 -0.0208,-0.0207 -0.0436,-0.0399 -0.0645,-0.0605 -0.0495,-0.0507 -0.0981,-0.10233 -0.14844,-0.15235 -0.0234,-0.0233 -0.0488,-0.0451 -0.0723,-0.0684 -0.0502,-0.0515 -0.0993,-0.10354 -0.15039,-0.15429 -0.0247,-0.0246 -0.0514,-0.0478 -0.0762,-0.0723 -0.0527,-0.0541 -0.10455,-0.10875 -0.1582,-0.16211 -0.0189,-0.0187 -0.0397,-0.036 -0.0586,-0.0547 -0.062,-0.0638 -0.1224,-0.12861 -0.18554,-0.1914 -0.0264,-0.0262 -0.0556,-0.05 -0.082,-0.0762 -0.0582,-0.0598 -0.11462,-0.1208 -0.17383,-0.17969 -0.0342,-0.034 -0.0712,-0.0658 -0.10547,-0.0996 -0.054,-0.0555 -0.10715,-0.11136 -0.16211,-0.16602 -0.0289,-0.0288 -0.0608,-0.0553 -0.0898,-0.084 -0.0626,-0.0645 -0.12371,-0.12992 -0.1875,-0.19336 -0.0302,-0.0301 -0.0634,-0.0579 -0.0937,-0.0879 -0.0651,-0.0672 -0.12891,-0.13513 -0.19532,-0.20117 -0.0247,-0.0246 -0.0514,-0.0478 -0.0762,-0.0723 -0.074,-0.0765 -0.14709,-0.15336 -0.22265,-0.22851 -0.0364,-0.0362 -0.0767,-0.0694 -0.11329,-0.10547 -0.0659,-0.0679 -0.13008,-0.13632 -0.19726,-0.20313 -0.0309,-0.0307 -0.0647,-0.0592 -0.0957,-0.0898 -0.0751,-0.0777 -0.14982,-0.1561 -0.22657,-0.23242 -0.0348,-0.0346 -0.0725,-0.0671 -0.10742,-0.10157 -0.0746,-0.0772 -0.14839,-0.15466 -0.22461,-0.23046 -0.0332,-0.033 -0.0702,-0.0628 -0.10351,-0.0957 -0.0799,-0.0827 -0.15859,-0.16684 -0.24024,-0.24805 -0.0341,-0.0339 -0.0712,-0.0658 -0.10547,-0.0996 -0.0821,-0.0851 -0.16411,-0.17044 -0.24804,-0.25391 -0.0351,-0.0349 -0.0741,-0.0667 -0.10938,-0.10156 -0.0849,-0.0881 -0.16898,-0.17728 -0.25586,-0.26367 -0.0394,-0.0391 -0.0835,-0.0743 -0.12304,-0.11329 -0.0841,-0.0872 -0.16591,-0.17614 -0.25196,-0.26171 -0.0371,-0.0369 -0.078,-0.0707 -0.11523,-0.10743 -0.0899,-0.0934 -0.17939,-0.1877 -0.27149,-0.27929 -0.0351,-0.0349 -0.0741,-0.0668 -0.10937,-0.10157 -0.0955,-0.0993 -0.18929,-0.19959 -0.28711,-0.29687 -0.0423,-0.042 -0.0884,-0.0812 -0.13086,-0.12305 -0.092,-0.0956 -0.18313,-0.19146 -0.27734,-0.28515 -0.0504,-0.0501 -0.10558,-0.0966 -0.15625,-0.14649 -0.0876,-0.0909 -0.17404,-0.18234 -0.26368,-0.27148 -0.0384,-0.0381 -0.0806,-0.0733 -0.11914,-0.11133 -0.10306,-0.10728 -0.20488,-0.21523 -0.31054,-0.32031 -0.0524,-0.0521 -0.10945,-0.10052 -0.16211,-0.15235 -0.0926,-0.0962 -0.18443,-0.19276 -0.2793,-0.28711 -0.0436,-0.0433 -0.091,-0.0838 -0.13477,-0.12695 -0.1051,-0.10942 -0.21058,-0.21899 -0.31835,-0.32617 -0.0446,-0.0443 -0.0939,-0.0848 -0.13868,-0.12891 -0.10731,-0.11176 -0.21415,-0.22453 -0.32422,-0.33398 -0.0498,-0.0494 -0.10428,-0.0953 -0.15429,-0.14453 -0.1056,-0.10995 -0.21008,-0.22044 -0.31836,-0.32813 -0.0442,-0.0439 -0.0923,-0.0851 -0.13672,-0.1289 -0.11511,-0.11995 -0.22956,-0.23998 -0.34766,-0.35743 -0.0579,-0.0576 -0.12142,-0.11068 -0.17968,-0.16797 -0.10497,-0.10928 -0.20878,-0.21913 -0.31641,-0.32617 -0.0465,-0.0462 -0.0978,-0.0887 -0.14453,-0.13476 -0.11988,-0.12495 -0.23832,-0.25072 -0.36133,-0.37305 -0.0602,-0.0598 -0.12692,-0.11429 -0.1875,-0.17383 -0.10972,-0.11429 -0.21754,-0.22987 -0.33008,-0.34179 -0.051,-0.0507 -0.10687,-0.0979 -0.1582,-0.14844 -0.12254,-0.12771 -0.24536,-0.25582 -0.3711,-0.38086 -0.052,-0.0517 -0.10978,-0.0989 -0.1621,-0.15039 -0.12477,-0.13004 -0.24893,-0.26135 -0.37696,-0.38867 -0.0575,-0.0572 -0.11983,-0.11105 -0.17773,-0.16797 -0.12274,-0.12793 -0.24515,-0.25561 -0.3711,-0.38086 -0.0523,-0.052 -0.10946,-0.10054 -0.16211,-0.15235 -0.13199,-0.13754 -0.263,-0.27546 -0.39843,-0.41015 -0.0661,-0.0656 -0.13857,-0.12612 -0.20508,-0.19141 -0.12179,-0.12694 -0.24222,-0.25462 -0.36719,-0.3789 -0.0566,-0.0562 -0.11886,-0.10809 -0.17578,-0.16407 -0.13497,-0.14061 -0.26973,-0.28221 -0.4082,-0.41992 -0.0556,-0.0553 -0.11595,-0.1071 -0.17188,-0.16211 -0.13904,-0.14481 -0.27729,-0.28979 -0.41992,-0.43164 -0.0693,-0.0689 -0.14504,-0.13269 -0.21484,-0.20117 -0.12945,-0.1349 -0.25781,-0.27025 -0.39063,-0.40235 -0.0647,-0.0643 -0.13601,-0.12352 -0.20117,-0.1875 -0.13744,-0.14317 -0.27306,-0.2875 -0.41406,-0.42773 -0.0605,-0.0601 -0.12663,-0.11597 -0.1875,-0.17578 -0.14523,-0.15115 -0.29053,-0.30307 -0.43946,-0.45117 -0.0615,-0.0611 -0.12953,-0.11695 -0.1914,-0.17774 -0.14748,-0.15344 -0.2941,-0.3086 -0.44531,-0.45898 -0.0624,-0.062 -0.13052,-0.11991 -0.19336,-0.18164 -0.15038,-0.15639 -0.30094,-0.3135 -0.45508,-0.4668 -0.0693,-0.0688 -0.14507,-0.13272 -0.21485,-0.20117 -0.14708,-0.15305 -0.29254,-0.30705 -0.44336,-0.45703 -0.0647,-0.0643 -0.13601,-0.12352 -0.20117,-0.1875 -0.15522,-0.1613 -0.3097,-0.32425 -0.46875,-0.48242 -0.0647,-0.0643 -0.13601,-0.12352 -0.20117,-0.1875 -0.15906,-0.16517 -0.31559,-0.33212 -0.47851,-0.49414 -0.0719,-0.0715 -0.15022,-0.13795 -0.22266,-0.20899 -0.15549,-0.16157 -0.30943,-0.32398 -0.46875,-0.48242 -0.0794,-0.0789 -0.16604,-0.15209 -0.24609,-0.23047 -0.15161,-0.15764 -0.30164,-0.31616 -0.45704,-0.4707 -0.0748,-0.0743 -0.15703,-0.14292 -0.23242,-0.2168 -0.15971,-0.16581 -0.31689,-0.33342 -0.48047,-0.49609 -0.0761,-0.0756 -0.15961,-0.14555 -0.23632,-0.22071 -0.16232,-0.16842 -0.32209,-0.33862 -0.48829,-0.5039 -0.0712,-0.0708 -0.14895,-0.13667 -0.2207,-0.20703 -0.17084,-0.17688 -0.3409,-0.35554 -0.51562,-0.5293 -0.0716,-0.0711 -0.15057,-0.13634 -0.22266,-0.20703 -0.17377,-0.17977 -0.34384,-0.3624 -0.52148,-0.53906 -0.0849,-0.0844 -0.17799,-0.16229 -0.26368,-0.2461 -0.16427,-0.17037 -0.32598,-0.34253 -0.49414,-0.50976 -0.0806,-0.0802 -0.16866,-0.15476 -0.25,-0.23438 -0.17212,-0.17814 -0.34157,-0.35816 -0.51758,-0.5332 -0.0702,-0.0698 -0.14797,-0.13371 -0.21874,-0.20313 -0.18634,-0.19196 -0.37048,-0.38714 -0.56055,-0.57617 -0.0829,-0.0824 -0.17416,-0.15837 -0.25781,-0.24023 -0.17707,-0.18299 -0.35034,-0.36891 -0.53125,-0.54883 -0.0777,-0.0773 -0.16382,-0.14785 -0.24219,-0.22461 -0.18633,-0.19196 -0.36852,-0.38714 -0.5586,-0.57617 -0.0813,-0.0808 -0.16996,-0.15607 -0.25195,-0.23633 -0.18633,-0.19196 -0.36852,-0.38714 -0.55859,-0.57617 -0.0849,-0.0844 -0.17799,-0.16229 -0.26367,-0.2461 0,0 -0.002,-0.002 -0.002,-0.002 -0.18566,-0.19132 -0.36722,-0.38584 -0.55664,-0.57422 -0.0885,-0.088 -0.18605,-0.16853 -0.27539,-0.25586 -0.18633,-0.19196 -0.36852,-0.38714 -0.55859,-0.57617 -0.092,-0.0915 -0.19224,-0.17681 -0.28516,-0.26758 -0.18633,-0.19196 -0.36852,-0.38714 -0.55859,-0.57617 -0.0868,-0.0863 -0.18191,-0.16627 -0.26953,-0.25195 -0.009,-0.009 -0.0167,-0.0184 -0.0254,-0.0274 -0.18634,-0.19196 -0.37048,-0.38714 -0.56055,-0.57617 -0.0933,-0.0927 -0.19482,-0.17944 -0.28906,-0.27148 -0.006,-0.006 -0.0118,-0.0116 -0.0176,-0.0176 -0.18633,-0.19196 -0.36852,-0.38714 -0.5586,-0.57617 -0.0956,-0.095 -0.20029,-0.18307 -0.29687,-0.27735 -0.007,-0.008 -0.0141,-0.0158 -0.0215,-0.0234 -0.18634,-0.19197 -0.36853,-0.38715 -0.5586,-0.57618 -0.093,-0.0924 -0.19514,-0.17779 -0.28906,-0.26953 -0.0135,-0.0139 -0.0256,-0.029 -0.0391,-0.043 -0.18633,-0.19196 -0.36853,-0.38714 -0.5586,-0.57617 -0.0989,-0.0983 -0.2067,-0.18961 -0.30664,-0.28711 -0.0112,-0.0116 -0.022,-0.0236 -0.0332,-0.0352 -0.18633,-0.19197 -0.36852,-0.38715 -0.5586,-0.57618 -0.10508,-0.10444 -0.21991,-0.20114 -0.32617,-0.30468 -0.009,-0.009 -0.0167,-0.0184 -0.0254,-0.0274 -0.18633,-0.19196 -0.36852,-0.38714 -0.55859,-0.57617 -0.10309,-0.10245 -0.2161,-0.19723 -0.32031,-0.29883 -0.0141,-0.0146 -0.0269,-0.0303 -0.041,-0.0449 -0.18633,-0.19196 -0.36852,-0.38714 -0.55859,-0.57617 -0.10504,-0.10439 -0.21997,-0.20119 -0.32617,-0.30469 -0.0161,-0.0166 -0.0308,-0.0342 -0.0469,-0.0508 -0.18633,-0.19196 -0.36852,-0.38714 -0.55859,-0.57617 -0.10275,-0.10212 -0.21449,-0.19756 -0.31836,-0.29883 -0.0218,-0.0226 -0.0426,-0.0458 -0.0645,-0.0684 -0.18633,-0.19196 -0.36852,-0.38714 -0.55859,-0.57617 -0.11257,-0.11188 -0.23569,-0.21532 -0.34961,-0.32617 -0.0154,-0.0159 -0.0295,-0.0329 -0.0449,-0.0488 -0.18633,-0.19196 -0.36852,-0.38714 -0.55859,-0.57617 -0.10699,-0.10633 -0.22384,-0.20515 -0.33204,-0.31055 -0.0247,-0.0256 -0.0475,-0.0526 -0.0723,-0.0781 -0.18633,-0.19197 -0.37048,-0.38715 -0.56055,-0.57618 -0.10862,-0.10795 -0.22802,-0.20745 -0.33789,-0.31445 -0.0263,-0.0272 -0.0498,-0.0568 -0.0762,-0.084 -0.18633,-0.19197 -0.37048,-0.38715 -0.56055,-0.57617 -0.11057,-0.1099 -0.23188,-0.21142 -0.34375,-0.32032 -0.0282,-0.0292 -0.0537,-0.0607 -0.082,-0.0898 -0.18633,-0.19196 -0.36852,-0.38714 -0.55859,-0.57617 -0.11647,-0.11576 -0.24342,-0.22324 -0.36133,-0.33789 -0.026,-0.0269 -0.0501,-0.0552 -0.0762,-0.082 -0.18633,-0.19196 -0.37048,-0.38714 -0.56055,-0.57617 -0.11447,-0.11376 -0.23961,-0.21933 -0.35547,-0.33203 -0.0314,-0.0326 -0.0603,-0.0671 -0.0918,-0.0996 -0.18633,-0.19196 -0.36852,-0.38714 -0.55859,-0.57617 -0.12006,-0.11932 -0.25146,-0.2295 -0.37305,-0.34766 -0.0295,-0.0306 -0.0563,-0.0632 -0.0859,-0.0937 -0.18633,-0.19196 -0.37048,-0.38714 -0.56055,-0.57617 -0.11836,-0.11764 -0.24734,-0.22725 -0.36719,-0.34375 -0.0346,-0.0359 -0.0668,-0.0736 -0.10156,-0.10937 -0.18633,-0.19196 -0.37048,-0.38715 -0.56055,-0.57617 -0.12421,-0.12346 -0.25891,-0.23914 -0.38476,-0.36133 -0.0324,-0.0336 -0.0632,-0.0681 -0.0957,-0.10156 -0.18633,-0.19197 -0.36852,-0.38715 -0.55859,-0.57618 -0.1265,-0.12572 -0.26438,-0.24276 -0.39258,-0.36718 -0.034,-0.0352 -0.0655,-0.0723 -0.0996,-0.10743 -0.18633,-0.19196 -0.36852,-0.38714 -0.55859,-0.57617 -0.12845,-0.12766 -0.26824,-0.24673 -0.39844,-0.37304 -0.0359,-0.0372 -0.0694,-0.0762 -0.10547,-0.11329 -0.18633,-0.19196 -0.36852,-0.38714 -0.55859,-0.57617 -0.13008,-0.12928 -0.27242,-0.24904 -0.4043,-0.37695 -0.0375,-0.0389 -0.0717,-0.0804 -0.10937,-0.11914 -0.18633,-0.19196 -0.36852,-0.38714 -0.5586,-0.57617 -0.13202,-0.13122 -0.27627,-0.25301 -0.41015,-0.38282 -0.0394,-0.0409 -0.0757,-0.0842 -0.11524,-0.125 -0.18633,-0.19196 -0.36852,-0.38714 -0.55859,-0.57617 -0.13039,-0.12959 -0.2721,-0.25069 -0.4043,-0.3789 -0.0445,-0.0462 -0.0861,-0.0946 -0.13086,-0.14063 -0.18633,-0.19196 -0.36852,-0.38714 -0.55859,-0.57617 -0.13599,-0.13516 -0.28392,-0.26088 -0.42188,-0.39453 -0.0426,-0.0442 -0.0822,-0.0907 -0.125,-0.13477 -0.18633,-0.19196 -0.36852,-0.38714 -0.55859,-0.57617 -0.14153,-0.14066 -0.2958,-0.27112 -0.43945,-0.41016 -0.0407,-0.0422 -0.0783,-0.0868 -0.11914,-0.1289 -0.18633,-0.19196 -0.36853,-0.38715 -0.5586,-0.57617 -0.13982,-0.13897 -0.29169,-0.26888 -0.43359,-0.40625 -0.0458,-0.0476 -0.0888,-0.0971 -0.13477,-0.14454 -0.18633,-0.19196 -0.36852,-0.38714 -0.55859,-0.57617 -0.13787,-0.13703 -0.28784,-0.2649 -0.42774,-0.40039 -0.0512,-0.0532 -0.0989,-0.10907 -0.15039,-0.16211 -0.18633,-0.19196 -0.37047,-0.38714 -0.56054,-0.57617 -0.14341,-0.14253 -0.29972,-0.27516 -0.44531,-0.41602 -0.0493,-0.0513 -0.095,-0.10519 -0.14454,-0.15624 -0.18633,-0.19197 -0.36852,-0.38715 -0.55859,-0.57618 -0.14536,-0.14446 -0.30357,-0.27912 -0.45117,-0.42187 -0.0512,-0.0533 -0.0989,-0.10907 -0.15039,-0.16211 -0.18633,-0.19196 -0.36852,-0.38714 -0.5586,-0.57617 -0.1434,-0.14253 -0.29972,-0.27516 -0.44531,-0.41602 -0.0566,-0.0589 -0.10911,-0.12105 -0.16601,-0.17969 -0.18634,-0.19196 -0.36853,-0.38714 -0.5586,-0.57617 -0.14932,-0.14841 -0.31119,-0.28699 -0.46289,-0.43359 -0.0544,-0.0566 -0.10547,-0.11553 -0.16016,-0.17188 -0.18633,-0.19196 -0.36852,-0.38714 -0.55859,-0.57617 -0.15486,-0.15391 -0.32306,-0.29725 -0.48047,-0.44922 -0.0525,-0.0546 -0.10154,-0.11165 -0.15429,-0.16601 -0.18634,-0.19197 -0.36853,-0.38715 -0.5586,-0.57618 -0.15349,-0.15254 -0.32057,-0.29467 -0.47656,-0.44531 -0.0572,-0.0596 -0.11038,-0.1223 -0.16797,-0.18164 -0.18633,-0.19196 -0.36852,-0.38714 -0.55859,-0.57617 -0.1512,-0.15028 -0.31512,-0.29103 -0.46875,-0.43945 -0.063,-0.0657 -0.12214,-0.13388 -0.18555,-0.19922 -0.18633,-0.19196 -0.37047,-0.38714 -0.56055,-0.57617 -0.15707,-0.15612 -0.32859,-0.30098 -0.48828,-0.45508 -0.0607,-0.0633 -0.1166,-0.13037 -0.17773,-0.19336 -0.18633,-0.19196 -0.36852,-0.38714 -0.5586,-0.57617 -0.15902,-0.15805 -0.33243,-0.30495 -0.49414,-0.46094 -0.0626,-0.0653 -0.12053,-0.13424 -0.18359,-0.19922 -0.18633,-0.19196 -0.36852,-0.38714 -0.55859,-0.57617 -0.15773,-0.15676 -0.32988,-0.3023 -0.49024,-0.45703 -0.0674,-0.0703 -0.12937,-0.14489 -0.19726,-0.21485 -0.18634,-0.19196 -0.36853,-0.38714 -0.5586,-0.57617 -0.16421,-0.16321 -0.34268,-0.31554 -0.50976,-0.47656 -0.0645,-0.0673 -0.12447,-0.13811 -0.18946,-0.20508 -0.18633,-0.19196 -0.36852,-0.38714 -0.55859,-0.57617 -0.16942,-0.16838 -0.35293,-0.32614 -0.52539,-0.49219 -0.0629,-0.0656 -0.12218,-0.13392 -0.18555,-0.19922 -0.18633,-0.19196 -0.36852,-0.38714 -0.55859,-0.57617 -0.16292,-0.16192 -0.34012,-0.31289 -0.50586,-0.47266 -0.073,-0.0763 -0.14122,-0.15655 -0.21485,-0.23242 -0.18633,-0.19196 -0.36852,-0.38714 -0.55859,-0.57617 -0.17178,-0.17073 -0.35829,-0.32971 -0.5332,-0.49805 -0.0677,-0.0707 -0.13102,-0.14456 -0.19922,-0.21484 -0.18633,-0.19196 -0.36852,-0.38714 -0.55859,-0.57617 -0.16747,-0.16644 -0.34909,-0.32217 -0.51954,-0.48633 -0.0756,-0.079 -0.14641,-0.16167 -0.22265,-0.24023 -0.18633,-0.19197 -0.36849,-0.38715 -0.5586,-0.57618 -0.17211,-0.17106 -0.35989,-0.32939 -0.53515,-0.49804 -0.0746,-0.078 -0.14351,-0.16075 -0.21875,-0.23828 -0.18633,-0.19197 -0.36852,-0.38715 -0.5586,-0.57618 -0.17373,-0.17266 -0.36212,-0.33369 -0.53906,-0.5039 -0.0763,-0.0798 -0.14767,-0.16291 -0.22461,-0.24219 -0.18633,-0.19196 -0.37047,-0.38714 -0.56054,-0.57617 -0.17625,-0.17517 -0.36733,-0.33908 -0.54688,-0.51172 -0.0775,-0.0811 -0.15034,-0.16554 -0.22852,-0.24609 -0.18633,-0.19197 -0.36852,-0.38715 -0.55859,-0.57618 -0.17528,-0.17421 -0.36637,-0.3361 -0.54492,-0.50781 -0.082,-0.0858 -0.15754,-0.17651 -0.24023,-0.26172 -0.18634,-0.19196 -0.37048,-0.38714 -0.56055,-0.57617 -0.1769,-0.17581 -0.36861,-0.3404 -0.54883,-0.51367 -0.0835,-0.0874 -0.16181,-0.17878 -0.24609,-0.26563 -0.18633,-0.19196 -0.37048,-0.38714 -0.56055,-0.57617 -0.17918,-0.17808 -0.37405,-0.34405 -0.55664,-0.51953 -0.0851,-0.0891 -0.1641,-0.18297 -0.25,-0.27148 -0.18633,-0.19197 -0.37048,-0.38715 -0.56055,-0.57618 -0.18373,-0.1826 -0.383,-0.35334 -0.57031,-0.5332 -0.0841,-0.0881 -0.16311,-0.18006 -0.24805,-0.26758 -0.18633,-0.19196 -0.36852,-0.38714 -0.55859,-0.57617 -0.18601,-0.18487 -0.38844,-0.357 -0.57813,-0.53906 -0.0857,-0.0898 -0.1654,-0.18425 -0.25195,-0.27344 -0.18633,-0.19196 -0.36852,-0.38714 -0.55859,-0.57617 -0.18503,-0.1839 -0.38556,-0.356 -0.57422,-0.53711 -0.0901,-0.0945 -0.17458,-0.1933 -0.26563,-0.28711 -0.18633,-0.19196 -0.36852,-0.38714 -0.55859,-0.57617 -0.19,-0.18884 -0.39601,-0.36488 -0.58984,-0.55078 -0.0889,-0.0932 -0.17196,-0.19072 -0.26172,-0.28321 -0.18633,-0.19196 -0.37048,-0.38714 -0.56055,-0.57617 -0.19186,-0.19068 -0.39994,-0.36895 -0.5957,-0.55664 -0.0901,-0.0945 -0.17458,-0.19329 -0.26563,-0.28711 -0.18633,-0.19196 -0.36848,-0.38714 -0.55859,-0.57617 -0.19121,-0.19004 -0.39866,-0.36762 -0.59375,-0.55469 -0.0949,-0.0995 -0.18342,-0.20394 -0.2793,-0.30273 -0.18633,-0.19196 -0.37047,-0.38714 -0.56055,-0.57617 -0.19423,-0.19305 -0.40527,-0.37252 -0.60351,-0.5625 -0.0949,-0.0996 -0.18342,-0.20394 -0.2793,-0.30274 -0.18633,-0.19196 -0.36852,-0.38714 -0.55859,-0.57617 -0.19511,-0.19391 -0.40632,-0.37559 -0.60547,-0.56641 -0.098,-0.1029 -0.18998,-0.21039 -0.28906,-0.3125 -0.18633,-0.19196 -0.37048,-0.38714 -0.56055,-0.57617 -0.19674,-0.19554 -0.41048,-0.37792 -0.61133,-0.57031 -0.0996,-0.1046 -0.19226,-0.21459 -0.29297,-0.31836 -0.18633,-0.19196 -0.37047,-0.38714 -0.56054,-0.57617 -0.20129,-0.20006 -0.41941,-0.38722 -0.625,-0.58399 -0.0987,-0.10358 -0.19129,-0.21168 -0.29102,-0.31445 -0.18633,-0.19196 -0.36848,-0.38714 -0.55859,-0.57617 -0.20064,-0.19941 -0.41814,-0.38589 -0.62305,-0.58203 -0.10337,-0.10864 -0.20013,-0.22234 -0.30469,-0.33008 -0.18633,-0.19196 -0.36852,-0.38714 -0.55859,-0.57617 -0.20822,-0.20695 -0.43366,-0.4001 -0.64649,-0.60352 -0.0993,-0.10426 -0.19259,-0.21297 -0.29296,-0.3164 -0.18634,-0.19197 -0.36853,-0.38715 -0.5586,-0.57618 -0.20454,-0.20328 -0.42578,-0.39386 -0.63476,-0.59374 -0.10652,-0.11201 -0.20668,-0.2288 -0.31446,-0.33985 -0.18633,-0.19196 -0.36852,-0.38519 -0.55859,-0.57422 -0.20942,-0.20814 -0.43632,-0.40285 -0.65039,-0.60742 -0.10526,-0.11067 -0.20406,-0.2262 -0.31055,-0.33594 -0.18633,-0.19196 -0.36852,-0.38714 -0.55859,-0.57617 -0.21202,-0.21072 -0.44141,-0.40817 -0.65821,-0.61523 -0.10595,-0.11141 -0.20529,-0.22743 -0.3125,-0.33789 -0.18633,-0.19197 -0.37047,-0.38715 -0.56054,-0.57618 -0.20942,-0.20814 -0.43631,-0.40284 -0.65039,-0.60742 -0.11193,-0.11782 -0.21676,-0.24065 -0.33008,-0.35742 -0.18633,-0.19196 -0.37048,-0.38714 -0.56055,-0.57617 -0.21462,-0.21331 -0.4465,-0.41349 -0.66601,-0.62305 -0.11028,-0.11605 -0.21454,-0.23653 -0.32617,-0.35156 -0.18634,-0.19196 -0.36853,-0.38714 -0.5586,-0.57617 -0.21786,-0.21654 -0.45288,-0.42014 -0.67578,-0.63281 -0.11097,-0.11681 -0.21578,-0.23776 -0.32812,-0.35352 -0.18634,-0.19196 -0.37048,-0.38714 -0.56055,-0.57617 -0.2143,-0.213 -0.44684,-0.41184 -0.66602,-0.6211 -0.11782,-0.12417 -0.22828,-0.25395 -0.34765,-0.37695 -0.18633,-0.19196 -0.36853,-0.38714 -0.5586,-0.57617 -0.22144,-0.2201 -0.46084,-0.42647 -0.6875,-0.64258 -0.11443,-0.12052 -0.222,-0.24582 -0.33789,-0.36523 -0.18633,-0.19197 -0.37047,-0.38715 -0.56055,-0.57618 -0.21916,-0.21782 -0.45542,-0.4228 -0.67968,-0.63671 -0.12007,-0.1266 -0.23379,-0.25744 -0.35547,-0.38282 -0.18633,-0.19196 -0.36852,-0.38714 -0.55859,-0.57617 -0.226,-0.22462 -0.46976,-0.43579 -0.70118,-0.65625 -0.11741,-0.12374 -0.2287,-0.25243 -0.34765,-0.375 -0.18626,-0.19196 -0.36858,-0.38714 -0.5586,-0.57617 -0.22763,-0.22624 -0.4739,-0.43813 -0.70703,-0.66016 -0.11899,-0.12543 -0.23099,-0.25662 -0.35156,-0.38086 -0.18626,-0.19196 -0.36859,-0.38714 -0.55859,-0.57617 -0.22958,-0.22818 -0.47772,-0.44213 -0.71289,-0.66601 -0.1204,-0.12695 -0.23346,-0.25905 -0.35547,-0.38477 -0.18626,-0.19196 -0.37055,-0.38714 -0.56055,-0.57617 -0.22373,-0.22237 -0.46627,-0.43015 -0.69531,-0.64844 -0.12972,-0.13702 -0.25122,-0.28042 -0.38282,-0.41601 -0.18625,-0.19197 -0.37055,-0.38715 -0.56054,-0.57618 -0.23348,-0.23205 -0.48535,-0.45012 -0.72461,-0.67773 -0.12353,-0.13033 -0.24001,-0.2655 -0.36524,-0.39453 -0.18625,-0.19196 -0.37054,-0.38714 -0.56054,-0.57617 -0.23088,-0.22947 -0.48026,-0.44479 -0.7168,-0.66993 -0.12993,-0.13726 -0.25294,-0.28018 -0.38477,-0.41601 -0.18625,-0.19196 -0.36859,-0.38714 -0.55859,-0.57617 -0.23738,-0.23593 -0.49297,-0.45812 -0.73633,-0.68946 -0.12711,-0.13421 -0.24803,-0.27341 -0.37695,-0.40625 -0.18626,-0.19196 -0.36859,-0.38714 -0.55859,-0.57617 -0.23902,-0.23755 -0.49712,-0.46046 -0.74219,-0.69336 -0.12885,-0.13608 -0.25016,-0.27743 -0.38086,-0.41211 -0.18626,-0.19196 -0.36859,-0.38714 -0.5586,-0.57617 -0.24095,-0.23949 -0.50092,-0.46446 -0.74804,-0.69922 -0.13072,-0.13811 -0.25409,-0.2813 -0.38672,-0.41797 -0.18626,-0.19196 -0.37055,-0.38714 -0.56055,-0.57617 -0.23867,-0.23722 -0.49551,-0.46078 -0.74023,-0.69336 -0.13617,-0.14402 -0.26606,-0.2931 -0.4043,-0.43554 -0.18625,-0.19197 -0.36859,-0.38715 -0.55859,-0.57618 -0.2452,-0.24369 -0.51015,-0.47213 -0.76172,-0.71093 -0.13354,-0.14118 -0.25899,-0.28808 -0.39453,-0.42774 -0.18626,-0.19196 -0.3686,-0.38714 -0.5586,-0.57617 -0.24584,-0.24434 -0.51141,-0.47347 -0.76367,-0.71289 -0.13658,-0.14447 -0.26563,-0.29462 -0.40429,-0.4375 -0.18626,-0.19196 -0.3686,-0.38714 -0.5586,-0.57617 -0.24909,-0.24757 -0.51776,-0.48014 -0.77344,-0.72266 -0.13666,-0.14456 -0.26554,-0.29453 -0.40429,-0.4375 -0.18626,-0.19196 -0.37055,-0.38714 -0.56055,-0.57617 -0.24649,-0.24499 -0.51268,-0.4748 -0.76562,-0.71484 -0.1426,-0.15101 -0.27701,-0.30776 -0.42188,-0.45704 -0.18626,-0.19196 -0.37055,-0.38714 -0.56055,-0.57617 -0.24844,-0.24692 -0.51649,-0.4788 -0.77148,-0.7207 -0.14428,-0.15284 -0.28112,-0.31182 -0.42774,-0.46289 -0.18625,-0.19196 -0.36859,-0.38714 -0.55859,-0.57617 -0.25364,-0.25209 -0.52664,-0.48948 -0.78711,-0.73633 -0.1428,-0.15124 -0.27873,-0.30753 -0.42383,-0.45703 -0.18625,-0.19196 -0.36859,-0.38715 -0.55859,-0.57617 -0.25689,-0.25532 -0.53299,-0.49615 -0.79688,-0.7461 -0.14333,-0.15181 -0.28014,-0.30891 -0.42578,-0.45898 -0.18625,-0.19196 -0.36859,-0.38715 -0.55859,-0.57617 -0.25722,-0.25566 -0.53458,-0.49583 -0.79883,-0.7461 -0.14624,-0.15498 -0.28495,-0.31559 -0.43359,-0.46875 -0.18626,-0.19196 -0.3686,-0.38714 -0.5586,-0.57617 -0.26047,-0.25888 -0.54092,-0.5025 -0.80859,-0.75586 -0.14676,-0.15555 -0.28636,-0.31698 -0.43555,-0.4707 -0.18625,-0.19196 -0.36859,-0.38715 -0.55859,-0.57617 -0.26242,-0.26082 -0.54473,-0.50651 -0.81445,-0.76172 -0.14819,-0.15711 -0.2888,-0.31937 -0.43946,-0.47461 -0.18625,-0.19196 -0.36859,-0.38715 -0.55859,-0.57617 -0.2647,-0.26309 -0.55013,-0.5102 -0.82227,-0.76758 -0.14975,-0.15882 -0.29108,-0.32356 -0.44336,-0.48047 -0.18625,-0.19196 -0.36859,-0.38714 -0.55859,-0.57617 -0.26665,-0.26503 -0.55393,-0.51421 -0.82812,-0.77344 -0.15144,-0.16065 -0.29521,-0.32763 -0.44922,-0.48633 -0.18626,-0.19196 -0.3686,-0.38714 -0.5586,-0.57617 -0.26696,-0.26534 -0.55359,-0.51586 -0.82812,-0.77539 -0.15431,-0.1638 -0.30199,-0.33238 -0.45899,-0.49414 -0.18625,-0.19196 -0.36859,-0.38714 -0.55859,-0.57617 -0.27055,-0.2689 -0.56153,-0.52222 -0.83984,-0.78516 -0.15454,-0.16404 -0.30177,-0.33409 -0.45899,-0.49609 -0.18625,-0.19197 -0.36859,-0.38715 -0.55859,-0.57618 -0.27219,-0.27052 -0.56566,-0.52457 -0.84571,-0.78906 -0.15609,-0.16575 -0.30405,-0.33828 -0.46289,-0.50195 -0.18625,-0.19196 -0.36859,-0.38714 -0.55859,-0.57617 -0.27445,-0.27278 -0.56912,-0.53024 -0.85156,-0.79688 -0.15763,-0.16743 -0.30832,-0.34055 -0.46875,-0.50586 -0.18626,-0.19196 -0.36859,-0.38714 -0.5586,-0.57617 -0.27608,-0.2744 -0.57325,-0.53259 -0.85742,-0.80078 -0.15939,-0.16936 -0.3104,-0.34453 -0.47265,-0.51172 -0.18626,-0.19196 -0.37055,-0.38714 -0.56055,-0.57617 -0.27349,-0.27182 -0.56819,-0.52725 -0.84961,-0.79297 -0.16529,-0.17583 -0.32186,-0.35775 -0.49023,-0.53125 -0.18626,-0.19196 -0.37055,-0.38714 -0.56055,-0.57617 -0.27543,-0.27375 -0.57199,-0.53126 -0.85547,-0.79883 -0.16694,-0.17764 -0.32601,-0.36185 -0.49609,-0.53711 -0.18626,-0.19196 -0.3686,-0.38714 -0.5586,-0.57617 -0.28063,-0.27892 -0.5821,-0.54195 -0.87109,-0.81445 -0.16549,-0.17605 -0.32361,-0.35755 -0.49219,-0.53125 -0.18625,-0.19197 -0.36859,-0.38715 -0.55859,-0.57618 -0.28388,-0.28214 -0.58843,-0.54863 -0.88086,-0.82421 -0.166,-0.17662 -0.32503,-0.35895 -0.49414,-0.53321 -0.18626,-0.19196 -0.3686,-0.38714 -0.5586,-0.57617 -0.28582,-0.28408 -0.59222,-0.55265 -0.88671,-0.83008 -0.16745,-0.1782 -0.32744,-0.36131 -0.49805,-0.53711 -0.18626,-0.19196 -0.36859,-0.38714 -0.5586,-0.57617 -0.28616,-0.28442 -0.59381,-0.55233 -0.88867,-0.83008 -0.17076,-0.18184 -0.33376,-0.36948 -0.50781,-0.54883 -0.18622,-0.19196 -0.3686,-0.38714 -0.55859,-0.57617 -0.28682,-0.28506 -0.59509,-0.55367 -0.89063,-0.83203 -0.17354,-0.18491 -0.33867,-0.37626 -0.51562,-0.55859 -0.18626,-0.19196 -0.37059,-0.38715 -0.56055,-0.57617 -0.28989,-0.28812 -0.60159,-0.55858 -0.90039,-0.83985 -0.17406,-0.18547 -0.3401,-0.37766 -0.51758,-0.56054 -0.18625,-0.19197 -0.36859,-0.38715 -0.55859,-0.57618 -0.29184,-0.29005 -0.60538,-0.56258 -0.90625,-0.8457 -0.17551,-0.18708 -0.34249,-0.38001 -0.52149,-0.56445 -0.18621,-0.19197 -0.37054,-0.38715 -0.56054,-0.57617 -0.28812,-0.28636 -0.59762,-0.55635 -0.89454,-0.83594 -0.1825,-0.1948 -0.35669,-0.39595 -0.54296,-0.58789 -0.18622,-0.19197 -0.37055,-0.38715 -0.56055,-0.57617 -0.29574,-0.29393 -0.61296,-0.57062 -0.91797,-0.85743 -0.1786,-0.19048 -0.34904,-0.38647 -0.53125,-0.57422 -0.18626,-0.19196 -0.37058,-0.38714 -0.56055,-0.57617 -0.29201,-0.29022 -0.60519,-0.56437 -0.90625,-0.84765 -0.18558,-0.19821 -0.36324,-0.40241 -0.55273,-0.59766 -0.18622,-0.19196 -0.37055,-0.38714 -0.56055,-0.57617 -0.29638,-0.29458 -0.61421,-0.57196 -0.91992,-0.85938 -0.18497,-0.19753 -0.36193,-0.40111 -0.55078,-0.5957 -0.18622,-0.19196 -0.37059,-0.38714 -0.56055,-0.57617 -0.29963,-0.29781 -0.62053,-0.57865 -0.92969,-0.86914 -0.18527,-0.19787 -0.36356,-0.40079 -0.55273,-0.59571 -0.18622,-0.19196 -0.36863,-0.38714 -0.55859,-0.57617 -0.30534,-0.30347 -0.63204,-0.59084 -0.94727,-0.88672 -0.18353,-0.19594 -0.35952,-0.39679 -0.54687,-0.58984 -0.18622,-0.19196 -0.36864,-0.38714 -0.5586,-0.57617 -0.30762,-0.30575 -0.63741,-0.59454 -0.95508,-0.89258 -0.18485,-0.19741 -0.36205,-0.40123 -0.55078,-0.5957 -0.18621,-0.19197 -0.36863,-0.38715 -0.55859,-0.57618 -0.30762,-0.30574 -0.63742,-0.59454 -0.95508,-0.89257 -0.18805,-0.20095 -0.36848,-0.40756 -0.56055,-0.60547 -0.18621,-0.19196 -0.36863,-0.38714 -0.55859,-0.57617 -0.31121,-0.30931 -0.64532,-0.60093 -0.9668,-0.90235 -0.18825,-0.20117 -0.36827,-0.4093 -0.56054,-0.60742 -0.18622,-0.19196 -0.36863,-0.38714 -0.5586,-0.57617 -0.31315,-0.31124 -0.64909,-0.60495 -0.97265,-0.9082 -0.18972,-0.2028 -0.37065,-0.41163 -0.56446,-0.61133 -0.18621,-0.19196 -0.37058,-0.38715 -0.56054,-0.57617 -0.31056,-0.30866 -0.64406,-0.59959 -0.96485,-0.90039 -0.19557,-0.20931 -0.3821,-0.42486 -0.58203,-0.63086 -0.18622,-0.19197 -0.37058,-0.38715 -0.56055,-0.57618 -0.3125,-0.31059 -0.64783,-0.6036 -0.9707,-0.90625 -0.19717,-0.21107 -0.38629,-0.42899 -0.58789,-0.63671 -0.18622,-0.19197 -0.36863,-0.38715 -0.55859,-0.57618 -0.319,-0.31705 -0.66044,-0.61701 -0.99024,-0.92578 -0.1944,-0.20799 -0.38138,-0.42221 -0.58008,-0.62695 -0.18621,-0.19196 -0.36863,-0.38714 -0.55859,-0.57617 -0.32095,-0.31899 -0.66421,-0.62104 -0.99609,-0.93164 -0.19625,-0.21004 -0.38532,-0.42609 -0.58594,-0.63282 -0.18622,-0.19196 -0.36863,-0.38714 -0.55859,-0.57617 -0.32259,-0.32061 -0.66833,-0.62341 -1.00196,-0.93555 -0.19779,-0.21176 -0.3876,-0.43028 -0.58984,-0.63867 -0.18622,-0.19196 -0.36863,-0.38714 -0.55859,-0.57617 -0.32485,-0.32286 -0.67177,-0.62909 -1.00782,-0.94336 -0.19931,-0.21345 -0.39187,-0.43255 -0.5957,-0.64258 -0.18622,-0.19196 -0.36863,-0.38714 -0.55859,-0.57617 -0.32649,-0.32449 -0.67589,-0.63146 -1.01368,-0.94726 -0.2011,-0.21546 -0.39389,-0.43647 -0.59961,-0.64844 -0.18621,-0.19196 -0.37058,-0.38714 -0.56054,-0.57617 -2.62486,-2.60884 -5.61605,-4.93828 -8.95899,-6.97266 -0.47748,-0.29083 -0.96123,-0.57493 -1.45312,-0.85352 -0.98372,-0.55717 -1.99674,-1.09105 -3.03711,-1.5996 -3.3325,-1.62877 -6.80775,-2.94145 -10.33594,-4 -0.504,-0.15126 -1.00976,-0.29841 -1.51562,-0.43946 -3.03512,-0.84589 -6.09802,-1.50998 -9.13086,-2.031248 -4.04351,-0.695066 -8.03478,-1.133816 -11.83203,-1.408203 -4.74722,-0.344995 -9.1933,-0.429687 -13.06836,-0.429687 z"
       transform="matrix(0.26458333,0,0,0.26458333,0,5.0255428)"
       id="path987"
       inkscape:connector-curvature="0"
       clip-path="url(#clipPath1921)"
       inkscape:export-filename="/home/eliastik/git_repos/SnakeIA/assets/images/icon/flowRoot854.png"
       inkscape:export-xdpi="100.03879"
       inkscape:export-ydpi="100.03879" />
    <path
       id="path950"
       d="m 115.72338,83.471451 c -3.28109,1.8e-5 -8.10894,0.228021 -12.13941,2.197972 -2.20225,1.076551 -3.927702,2.567185 -5.128154,4.430386 -1.362922,2.115216 -2.053969,4.72086 -2.053969,7.743895 0,4.402016 1.014864,7.103426 2.299975,10.523866 0.42836,1.14051 0.87156,2.31987 1.330418,3.69884 1.19034,3.5769 2.62935,7.26539 5.07839,10.00922 2.29067,2.56618 5.18496,3.99525 8.80811,4.34238 v 6.37436 l -5.23639,6.71281 2.84575,2.21975 4.19528,-5.3784 6.9e-4,-9.4e-4 4.19551,5.37903 2.84574,-2.21974 -5.23749,-6.71459 v -6.37125 -2.2e-4 -9.7e-4 c 0.007,-5.2e-4 0.013,-9.8e-4 0.0196,-0.002 0.54815,-0.0532 1.0797,-0.13105 1.59487,-0.234 9.8e-4,-2.2e-4 0.002,-4.8e-4 0.003,-5e-4 0.10322,-0.0207 0.20583,-0.0422 0.30777,-0.0649 0.003,-5.1e-4 0.007,-9.7e-4 0.0101,-0.002 0.0995,-0.0221 0.19874,-0.0451 0.2971,-0.0693 0.005,-9.6e-4 0.0101,-0.002 0.0147,-0.004 0.40129,-0.0989 0.79238,-0.21376 1.17332,-0.3449 0.002,-5e-4 0.004,-9.6e-4 0.006,-0.002 0.0824,-0.0283 0.16427,-0.058 0.24579,-0.0877 0.0206,-0.008 0.0414,-0.0152 0.0621,-0.0229 0.0786,-0.0293 0.15673,-0.0592 0.23444,-0.09 0.02,-0.009 0.0401,-0.0162 0.06,-0.0243 0.0769,-0.0309 0.15354,-0.0619 0.22954,-0.0941 0.0201,-0.009 0.0401,-0.0176 0.0603,-0.0262 0.23775,-0.10238 0.47124,-0.21161 0.70066,-0.32776 0.0268,-0.0135 0.0539,-0.027 0.0807,-0.0407 0.0638,-0.0329 0.12707,-0.0667 0.19022,-0.1007 0.0306,-0.0164 0.0614,-0.0329 0.0917,-0.0495 0.0601,-0.033 0.11971,-0.0663 0.17911,-0.10019 0.0382,-0.0217 0.0763,-0.0439 0.11422,-0.0663 0.0538,-0.0314 0.10724,-0.0631 0.16044,-0.0954 0.0358,-0.0217 0.0713,-0.0438 0.10711,-0.0659 0.0604,-0.0373 0.12073,-0.0747 0.18045,-0.11311 0.0202,-0.013 0.0403,-0.0269 0.0604,-0.0399 0.0955,-0.0622 0.19026,-0.12605 0.2842,-0.19113 0.0558,-0.0385 0.11133,-0.0768 0.16645,-0.11643 0.0381,-0.0274 0.0755,-0.0554 0.11334,-0.0831 0.0514,-0.0377 0.10272,-0.0752 0.15355,-0.11378 0.0391,-0.0295 0.0778,-0.0597 0.11643,-0.0898 0.0511,-0.0396 0.10187,-0.0796 0.15245,-0.12022 0.0364,-0.0291 0.0727,-0.0585 0.1089,-0.088 0.0471,-0.0385 0.0938,-0.0777 0.14044,-0.11712 0.0413,-0.0347 0.0825,-0.0693 0.12332,-0.10467 0.0481,-0.0416 0.0957,-0.0838 0.14334,-0.12623 0.0346,-0.0309 0.0694,-0.0611 0.10377,-0.0924 0.081,-0.0737 0.16141,-0.14855 0.2411,-0.22466 0.0233,-0.0221 0.0462,-0.045 0.0693,-0.0676 0.0572,-0.0554 0.11414,-0.11132 0.17065,-0.168 0.0305,-0.0307 0.061,-0.0618 0.0913,-0.0928 0.0527,-0.0538 0.10527,-0.10792 0.15733,-0.16289 0.0282,-0.0298 0.0563,-0.06 0.0845,-0.0903 0.0235,-0.0254 0.0474,-0.0501 0.0708,-0.0756 l 4.3e-4,-4.2e-4 c 0.0176,-0.0193 0.0356,-0.039 0.0531,-0.0585 3.5e-4,-3.4e-4 6.6e-4,-4.7e-4 9.5e-4,-9.7e-4 0.008,-0.0101 0.0165,-0.0182 0.0248,-0.0274 l 2.3e-4,-2.2e-4 c 9.8e-4,-9.6e-4 0.002,-0.002 0.003,-0.003 0,0 2.1e-4,-2.1e-4 2.1e-4,-2.1e-4 0.008,-0.0101 0.0162,-0.018 0.0241,-0.027 9.3e-4,-9.7e-4 0.002,-0.002 0.003,-0.003 0,0 0,-2.1e-4 0,-2.1e-4 0.009,-0.0101 0.0166,-0.0185 0.0248,-0.0277 0,0 2.2e-4,-2.4e-4 2.2e-4,-2.4e-4 0.0764,-0.0856 0.15192,-0.17228 0.22645,-0.25976 0,0 2.1e-4,-2.2e-4 2.1e-4,-2.2e-4 0.0744,-0.0875 0.14806,-0.17589 0.22067,-0.2651 0,0 2.1e-4,-2.4e-4 2.1e-4,-2.4e-4 0.0726,-0.0892 0.14435,-0.17931 0.21511,-0.27021 0,0 2.3e-4,-2.2e-4 2.3e-4,-2.2e-4 0.0707,-0.091 0.14062,-0.18264 0.20956,-0.27511 9e-5,-1.4e-4 1.1e-4,-3.1e-4 2.1e-4,-4.4e-4 0.0689,-0.0925 0.13701,-0.18564 0.20422,-0.27977 0,0 0,-2.1e-4 0,-2.1e-4 0.0671,-0.094 0.13367,-0.18893 0.19911,-0.28444 9e-5,-1.4e-4 1.3e-4,-3.2e-4 2.2e-4,-4.3e-4 0.0655,-0.0956 0.13,-0.19173 0.19377,-0.28867 1e-4,-1.4e-4 1.4e-4,-3.1e-4 2.3e-4,-4.3e-4 0.0638,-0.097 0.12673,-0.19459 0.18889,-0.29289 9e-5,-1.4e-4 1.4e-4,-3e-4 2.2e-4,-4.2e-4 0.024,-0.0382 0.0476,-0.0768 0.0714,-0.11533 0.0377,-0.0605 0.0758,-0.12087 0.11288,-0.18178 0.0607,-0.0997 0.12026,-0.20001 0.17934,-0.30089 0,0 2.2e-4,-2.2e-4 2.2e-4,-2.2e-4 0.11816,-0.2018 0.23344,-0.4061 0.34578,-0.61244 8e-5,-1.4e-4 1.3e-4,-3e-4 2.1e-4,-4.3e-4 0.11233,-0.20633 0.2218,-0.41474 0.32867,-0.6251 6e-5,-1.5e-4 1.4e-4,-2.9e-4 2.2e-4,-4.4e-4 0.1069,-0.21041 0.21109,-0.42272 0.31288,-0.63665 0,0 2.2e-4,-2.3e-4 2.2e-4,-2.3e-4 0.1018,-0.21392 0.20094,-0.4295 0.29801,-0.64644 0,0 2.2e-4,-2e-4 2.2e-4,-2e-4 0.0971,-0.21694 0.19172,-0.43526 0.28444,-0.65467 0,0 2.1e-4,-2.2e-4 2.1e-4,-2.2e-4 0.0928,-0.21941 0.18329,-0.43996 0.272,-0.66134 0,0 2.3e-4,-2.1e-4 2.3e-4,-2.1e-4 0.0887,-0.22131 0.17535,-0.44368 0.26044,-0.66643 5e-5,-1.7e-4 1.7e-4,-2.9e-4 2.2e-4,-4.3e-4 0.0214,-0.0562 0.0419,-0.11265 0.0632,-0.1689 0.14726,-0.39 0.29058,-0.78167 0.42865,-1.17354 0.0789,-0.2241 0.15663,-0.44841 0.23311,-0.67243 6e-5,-1.6e-4 1.7e-4,-2.9e-4 2.3e-4,-4.3e-4 0.0764,-0.22402 0.15164,-0.44793 0.22598,-0.67133 7e-5,-1.5e-4 1.8e-4,-2.7e-4 2.4e-4,-4.2e-4 0.11461,-0.34459 0.22815,-0.67671 0.34088,-0.99889 5e-5,-1.5e-4 1.7e-4,-2.8e-4 2.3e-4,-4.2e-4 0.1127,-0.32215 0.22451,-0.63434 0.33531,-0.9391 6e-5,-1.6e-4 1.7e-4,-2.9e-4 2.3e-4,-4.3e-4 0.11083,-0.3048 0.2206,-0.60201 0.32954,-0.89443 0,0 2.3e-4,-2.2e-4 2.3e-4,-2.2e-4 0.10892,-0.29234 0.21671,-0.57991 0.32378,-0.86488 6e-5,-1.6e-4 1.6e-4,-2.8e-4 2.2e-4,-4.3e-4 0.16057,-0.42748 0.31685,-0.84359 0.46755,-1.25333 0,0 2.2e-4,-2.1e-4 2.2e-4,-2.1e-4 0.0753,-0.20482 0.14924,-0.40806 0.22154,-0.61022 0,0 2.3e-4,-2.1e-4 2.3e-4,-2.1e-4 0.0723,-0.20216 0.14286,-0.40332 0.21179,-0.604 0,0 2.1e-4,-2.3e-4 2.1e-4,-2.3e-4 0.20683,-0.60212 0.39747,-1.20037 0.56733,-1.81042 3e-5,-1.5e-4 1.7e-4,-2.8e-4 2.2e-4,-4.1e-4 0.0566,-0.20334 0.1109,-0.40787 0.16266,-0.61445 0,0 0,-2.2e-4 0,-2.2e-4 0.0159,-0.0637 0.03,-0.12903 0.0456,-0.19311 0.0346,-0.14387 0.07,-0.28727 0.1022,-0.43333 0.32616,-1.4775 0.52043,-3.077785 0.52043,-5.00371 0,-3.023034 -0.69105,-5.628572 -2.05396,-7.743902 -0.41214,-0.639601 -0.88766,-1.23408 -1.42154,-1.784199 -0.0493,-0.05079 -0.0977,-0.102429 -0.14799,-0.152443 -0.6945,-0.690254 -1.48592,-1.306501 -2.37041,-1.844765 -0.12633,-0.07695 -0.25448,-0.152113 -0.38463,-0.225823 -0.26028,-0.14742 -0.52828,-0.28855 -0.80354,-0.423105 -0.88173,-0.430945 -1.80159,-0.778356 -2.73509,-1.058432 -0.13335,-0.04002 -0.26704,-0.07868 -0.40088,-0.115998 -0.80304,-0.223809 -1.61352,-0.39963 -2.41596,-0.537548 -1.06984,-0.183903 -2.1255,-0.300285 -3.13019,-0.372883 0,0 -2.1e-4,0 -2.1e-4,0 -1.25603,-0.09128 -2.43233,-0.113654 -3.45761,-0.113654 z"
       style="fill:#000000;fill-opacity:1;stroke-width:0.113776"
       inkscape:connector-curvature="0"
       clip-path="url(#clipPath1917)"
       transform="translate(0,5.0255428)"
       inkscape:export-filename="/home/eliastik/git_repos/SnakeIA/assets/images/icon/flowRoot854.png"
       inkscape:export-xdpi="100.03879"
       inkscape:export-ydpi="100.03879" />
    <g
       transform="matrix(0.11372221,0,0,0.11372221,28.388101,30.293903)"
       id="g1749"
       clip-path="url(#clipPath1913)"
       inkscape:export-filename="/home/eliastik/git_repos/SnakeIA/assets/images/icon/flowRoot854.png"
       inkscape:export-xdpi="100.03879"
       inkscape:export-ydpi="100.03879">
      <g
         id="g899">
        <path
           id="polyline895"
           d="m 271.856,438.932 h -31.722 v -76.583 h 31.722 v 76.583"
           style="fill:#e71b3f"
           inkscape:connector-curvature="0" />
        <path
           id="polyline897"
           d="M 292.877,512 256.001,464.722 219.123,512 194.112,492.49 256.001,413.148 317.889,492.49 292.877,512"
           style="fill:#e71b3f"
           inkscape:connector-curvature="0" />
      </g>
      <g
         id="g905">
        <path
           id="polyline901"
           d="m 271.856,362.349 h -15.86 v 50.805 l 0.005,-0.006 15.855,20.326 v -55.998 -15.127"
           style="fill:#e71b3f;fill-opacity:1"
           inkscape:connector-curvature="0" />
        <path
           id="polyline903"
           d="m 256.001,413.148 -0.005,0.006 v 51.576 l 0.005,-0.008 36.876,47.278 25.012,-19.51 -46.033,-59.016 -15.855,-20.326"
           style="fill:#e71b3f;fill-opacity:1"
           inkscape:connector-curvature="0" />
      </g>
      <path
         inkscape:connector-curvature="0"
         style="fill:#a0c432"
         d="m 256,378.209 c -39.396,0 -69.909,-12.728 -93.281,-38.911 -21.525,-24.116 -34.173,-56.533 -44.635,-87.971 -4.033,-12.12 -7.928,-22.486 -11.693,-32.51 C 95.096,188.754 86.176,165.01 86.176,126.32 86.176,99.75 92.249,76.849 104.228,58.258 114.779,41.882 129.944,28.781 149.3,19.319 184.726,2.004 227.162,0 256,0 c 28.837,0 71.273,2.004 106.7,19.319 19.355,9.461 34.52,22.563 45.072,38.939 11.979,18.592 18.052,41.492 18.052,68.062 0,38.691 -8.921,62.434 -20.214,92.497 -3.766,10.024 -7.662,20.39 -11.694,32.51 -10.462,31.438 -23.11,63.855 -44.634,87.971 -23.374,26.184 -53.887,38.911 -93.282,38.911"
         id="path907" />
      <path
         inkscape:connector-curvature="0"
         style="fill:#333333"
         d="m 182.433,142.835 c 0,-11.645 9.334,-21.075 20.806,-21.075 11.486,0 20.818,9.431 20.818,21.075 0,11.643 -9.333,21.082 -20.818,21.082 -11.471,0 -20.806,-9.439 -20.806,-21.082 z"
         id="path909" />
      <path
         inkscape:connector-curvature="0"
         d="m 329.57,142.835 c 0,-11.73 -9.396,-21.239 -20.963,-21.239 -11.582,0 -20.977,9.509 -20.977,21.239 0,11.73 9.396,21.239 20.977,21.239 11.567,0 20.963,-9.508 20.963,-21.239"
         id="path911" />
      <path
         inkscape:connector-curvature="0"
         style="fill:#bdbdbf"
         d="m 256.001,464.722 -0.005,0.006 v 0 l 0.005,-0.006 m 15.855,-87.246 v 0 55.999 l 46.033,59.015 -46.033,-59.015 v -55.999 m 76.241,-36.869 c -10e-4,10e-4 -0.003,0.003 -0.004,0.004 0.002,-0.002 0.002,-0.002 0.004,-0.004 m 0.476,-0.523 c -0.003,0.003 -0.006,0.006 -0.008,0.01 0.003,-0.003 0.004,-0.006 0.008,-0.01 m 0.249,-0.275 c -0.011,0.011 -0.02,0.022 -0.03,0.033 0.009,-0.009 0.02,-0.021 0.03,-0.033 m 0.238,-0.264 c -0.008,0.009 -0.017,0.018 -0.025,0.027 0.007,-0.008 0.018,-0.019 0.025,-0.027 M 256,0 h -0.004 c 0.001,0 0.002,0 0.004,0 28.837,0 71.273,2.004 106.7,19.319 19.355,9.461 34.52,22.563 45.072,38.939 11.979,18.592 18.052,41.492 18.052,68.062 v 0 c 0,-26.57 -6.073,-49.471 -18.052,-68.062 C 397.221,41.882 382.056,28.781 362.7,19.319 327.273,2.004 284.836,0 256,0"
         id="path913" />
      <path
         inkscape:connector-curvature="0"
         style="fill:#a0c432;fill-opacity:1"
         d="m 308.608,164.074 c -11.582,0 -20.977,-9.509 -20.977,-21.239 0,-11.73 9.395,-21.239 20.977,-21.239 11.567,0 20.963,9.509 20.963,21.239 0,11.73 -9.397,21.239 -20.963,21.239 M 256,0 c -0.002,0 -0.002,0 -0.004,0 0,0 0,374.776 0,378.209 9.66,0 15.86,-0.734 15.86,-0.734 v 0 -0.009 c 31.225,-2.989 56.292,-15.124 76.237,-36.855 10e-4,-10e-4 0.003,-0.003 0.004,-0.004 0.155,-0.169 0.313,-0.342 0.467,-0.513 0.003,-0.003 0.006,-0.006 0.008,-0.01 0.073,-0.08 0.146,-0.161 0.219,-0.241 0.01,-0.011 0.02,-0.022 0.03,-0.033 0.072,-0.079 0.142,-0.158 0.214,-0.237 0.008,-0.01 0.017,-0.018 0.025,-0.027 0.074,-0.082 0.146,-0.163 0.22,-0.245 21.525,-24.116 34.173,-56.533 44.634,-87.971 4.033,-12.12 7.928,-22.486 11.694,-32.51 11.294,-30.063 20.214,-53.807 20.214,-92.497 0,-26.57 -6.073,-49.471 -18.052,-68.062 C 397.219,41.885 382.054,28.784 362.698,19.322 327.273,2.004 284.836,0 256,0"
         id="path915" />
      <path
         inkscape:connector-curvature="0"
         style="fill:#333333"
         d="m 308.608,121.596 c -11.582,0 -20.977,9.509 -20.977,21.239 0,11.73 9.396,21.239 20.977,21.239 11.567,0 20.963,-9.509 20.963,-21.239 0,-11.73 -9.397,-21.239 -20.963,-21.239"
         id="path917" />
      <g
         id="g919" />
      <g
         id="g921" />
      <g
         id="g923" />
      <g
         id="g925" />
      <g
         id="g927" />
      <g
         id="g929" />
      <g
         id="g931" />
      <g
         id="g933" />
      <g
         id="g935" />
      <g
         id="g937" />
      <g
         id="g939" />
      <g
         id="g941" />
      <g
         id="g943" />
      <g
         id="g945" />
      <g
         id="g947" />
    </g>
    <flowRoot
       xml:space="preserve"
       id="flowRoot854"
       style="font-style:normal;font-weight:normal;font-size:40px;line-height:125%;font-family:Sans;letter-spacing:0px;word-spacing:0px;fill:#000000;fill-opacity:1;stroke:none;stroke-width:1px;stroke-linecap:butt;stroke-linejoin:miter;stroke-opacity:1"
       transform="matrix(0.26458333,0,0,0.26458333,-2.1166667,17.197917)"
       inkscape:export-filename="/home/eliastik/git_repos/SnakeIA/assets/images/icon/flowRoot854.png"
       inkscape:export-xdpi="100.03879"
       inkscape:export-ydpi="100.03879"><flowRegion
         id="flowRegion856"><rect
           id="rect858"
           width="716"
           height="89"
           x="407"
           y="144" /></flowRegion><flowPara
         id="flowPara860"
         style="font-style:normal;font-variant:normal;font-weight:normal;font-stretch:normal;font-size:133.333px;font-family:Delius;-inkscape-font-specification:Delius">Snake<flowSpan
   style="font-size:133.333px;fill:#3498db;fill-opacity:1"
   id="flowSpan862">IA</flowSpan></flowPara></flowRoot>
  </g>
</svg>
